<svg width="91" height="77" xmlns="http://www.w3.org/2000/svg" xmlns:xlink="http://www.w3.org/1999/xlink" overflow="hidden"><defs><clipPath id="clip0"><rect x="173" y="98" width="91" height="77"/></clipPath></defs><g clip-path="url(#clip0)" transform="translate(-173 -98)"><path d="M217.068 101.5C240.026 101.5 258.637 115.421 258.637 132.593 258.637 139.033 256.02 145.015 251.537 149.977L249.714 151.63 260.5 171.5 229.999 161.997 225.446 163.054C222.74 163.469 219.938 163.686 217.068 163.686 194.111 163.686 175.5 149.765 175.5 132.593 175.5 115.421 194.111 101.5 217.068 101.5Z" stroke="#000000" stroke-width="3" stroke-miterlimit="8" fill-rule="evenodd"/><path d="M239.636 112.035C241.743 112.035 243.446 112.576 244.742 113.658 246.039 114.739 246.734 116.221 246.826 118.102L243.665 118.102C243.596 117.091 243.197 116.28 242.467 115.668 241.738 115.057 240.759 114.751 239.532 114.751 238.397 114.751 237.494 114.998 236.823 115.492 236.151 115.986 235.815 116.633 235.815 117.432 235.815 118.067 236.018 118.59 236.423 119.002 236.829 119.413 237.338 119.742 237.952 119.989 238.565 120.236 239.416 120.513 240.505 120.818 241.871 121.195 242.982 121.565 243.839 121.929 244.696 122.294 245.431 122.841 246.045 123.57 246.658 124.299 246.977 125.251 247 126.427 247 127.485 246.711 128.437 246.132 129.284 245.553 130.131 244.736 130.795 243.683 131.277 242.629 131.759 241.419 132 240.053 132 238.594 132 237.286 131.747 236.128 131.242 234.97 130.736 234.056 130.031 233.384 129.125 232.712 128.22 232.342 127.179 232.273 126.004L235.538 126.004C235.63 126.968 236.076 127.755 236.875 128.367 237.674 128.978 238.722 129.284 240.018 129.284 241.223 129.284 242.172 129.014 242.867 128.473 243.561 127.932 243.909 127.25 243.909 126.427 243.909 125.58 243.538 124.951 242.797 124.54 242.056 124.128 240.91 123.723 239.358 123.323 237.946 122.946 236.794 122.564 235.902 122.176 235.011 121.788 234.247 121.212 233.61 120.448 232.973 119.684 232.655 118.678 232.655 117.432 232.655 116.444 232.944 115.539 233.523 114.716 234.102 113.893 234.924 113.24 235.989 112.758 237.054 112.276 238.27 112.035 239.636 112.035ZM185.364 112.035C187.471 112.035 189.173 112.576 190.47 113.658 191.766 114.739 192.461 116.221 192.554 118.102L189.393 118.102C189.323 117.091 188.924 116.28 188.194 115.668 187.465 115.057 186.487 114.751 185.259 114.751 184.125 114.751 183.222 114.998 182.55 115.492 181.879 115.986 181.543 116.633 181.543 117.432 181.543 118.067 181.745 118.59 182.151 119.002 182.556 119.413 183.065 119.742 183.679 119.989 184.293 120.236 185.144 120.513 186.232 120.818 187.598 121.195 188.71 121.565 189.567 121.929 190.423 122.294 191.159 122.841 191.772 123.57 192.386 124.299 192.704 125.251 192.727 126.427 192.727 127.485 192.438 128.437 191.859 129.284 191.28 130.131 190.464 130.795 189.41 131.277 188.357 131.759 187.147 132 185.781 132 184.322 132 183.013 131.747 181.855 131.242 180.698 130.736 179.783 130.031 179.111 129.125 178.44 128.22 178.069 127.179 178 126.004L181.265 126.004C181.358 126.968 181.803 127.755 182.602 128.367 183.401 128.978 184.449 129.284 185.746 129.284 186.95 129.284 187.899 129.014 188.594 128.473 189.289 127.932 189.636 127.25 189.636 126.427 189.636 125.58 189.265 124.951 188.525 124.54 187.784 124.128 186.637 123.723 185.086 123.323 183.673 122.946 182.521 122.564 181.63 122.176 180.738 121.788 179.974 121.212 179.337 120.448 178.7 119.684 178.382 118.678 178.382 117.432 178.382 116.444 178.671 115.539 179.25 114.716 179.829 113.893 180.651 113.24 181.717 112.758 182.782 112.276 183.997 112.035 185.364 112.035ZM206.664 112C208.262 112 209.675 112.364 210.902 113.093 212.129 113.822 213.044 114.892 213.646 116.303 214.179 114.939 215.059 113.881 216.286 113.129 217.513 112.376 218.879 112 220.385 112 221.867 112 223.186 112.312 224.344 112.935 225.502 113.558 226.417 114.493 227.088 115.739 227.76 116.985 228.096 118.502 228.096 120.289L228.096 131.683 224.969 131.683 224.969 120.748C224.969 118.82 224.501 117.344 223.563 116.321 222.625 115.298 221.357 114.787 219.759 114.787 218.115 114.787 216.807 115.322 215.834 116.391 214.862 117.461 214.375 119.008 214.375 121.03L214.375 131.683 211.249 131.683 211.249 120.748C211.249 118.82 210.781 117.344 209.843 116.321 208.905 115.298 207.637 114.787 206.039 114.787 204.395 114.787 203.087 115.322 202.114 116.391 201.142 117.461 200.655 119.008 200.655 121.03L200.655 131.683 197.495 131.683 197.495 112.353 200.655 112.353 200.655 115.139C201.281 114.128 202.12 113.352 203.174 112.811 204.227 112.27 205.391 112 206.664 112Z" stroke="#FFFFFF" stroke-width="2" stroke-linejoin="round" stroke-miterlimit="10" fill="#FFFFFF" fill-rule="evenodd"/><path d="M211.5 134.5 213.724 134.5 213.724 141.068C214.164 140.387 214.771 139.859 215.545 139.487 216.319 139.114 217.186 138.927 218.148 138.927 219.158 138.927 220.07 139.142 220.885 139.572 221.7 140.001 222.339 140.646 222.804 141.505 223.268 142.365 223.5 143.411 223.5 144.643L223.5 152.5 221.3 152.5 221.3 144.96C221.3 143.63 220.966 142.612 220.298 141.907 219.63 141.201 218.718 140.849 217.561 140.849 216.388 140.849 215.455 141.214 214.763 141.943 214.07 142.673 213.724 143.735 213.724 145.13L213.724 152.5 211.5 152.5 211.5 134.5Z" stroke="#FFFFFF" stroke-linejoin="round" stroke-miterlimit="10" fill="#FFFFFF" fill-rule="evenodd"/><path d="M243.129 135.5 245.218 135.5 245.218 138.92 248.5 138.92 248.5 140.778 245.218 140.778 245.218 148.783C245.218 149.444 245.348 149.91 245.608 150.183 245.868 150.456 246.32 150.592 246.962 150.592L248.5 150.592 248.5 152.5 246.618 152.5C245.455 152.5 244.583 152.211 244.002 151.633 243.42 151.054 243.129 150.105 243.129 148.783L243.129 140.778 241.5 140.778 241.5 138.92 243.129 138.92 243.129 135.5Z" stroke="#FFFFFF" stroke-linejoin="round" stroke-miterlimit="10" fill="#FFFFFF" fill-rule="evenodd"/><path d="M201.662 138.5C203.215 138.5 204.496 138.904 205.504 139.712 206.512 140.52 207.177 141.641 207.5 143.076L205.238 143.076C205.023 142.252 204.604 141.6 203.981 141.122 203.358 140.644 202.585 140.405 201.662 140.405 200.462 140.405 199.492 140.846 198.754 141.728 198.015 142.61 197.646 143.859 197.646 145.475 197.646 147.108 198.015 148.369 198.754 149.26 199.492 150.15 200.462 150.595 201.662 150.595 202.585 150.595 203.354 150.365 203.969 149.903 204.585 149.441 205.008 148.782 205.238 147.924L207.5 147.924C207.162 149.309 206.485 150.418 205.469 151.251 204.454 152.084 203.185 152.5 201.662 152.5 200.462 152.5 199.396 152.211 198.465 151.634 197.535 151.057 196.808 150.241 196.285 149.186 195.762 148.13 195.5 146.893 195.5 145.475 195.5 144.074 195.762 142.849 196.285 141.802 196.808 140.755 197.535 139.943 198.465 139.366 199.396 138.789 200.462 138.5 201.662 138.5Z" stroke="#FFFFFF" stroke-linejoin="round" stroke-miterlimit="10" fill="#FFFFFF" fill-rule="evenodd"/><path d="M231.579 138.5C232.701 138.5 233.676 138.756 234.502 139.267 235.328 139.778 235.944 140.421 236.349 141.196L236.349 138.723 238.5 138.723 238.5 152.277 236.349 152.277 236.349 149.755C235.928 150.546 235.301 151.202 234.467 151.721 233.633 152.24 232.663 152.5 231.556 152.5 230.418 152.5 229.389 152.203 228.469 151.61 227.55 151.016 226.825 150.183 226.295 149.111 225.765 148.04 225.5 146.819 225.5 145.451 225.5 144.065 225.765 142.849 226.295 141.802 226.825 140.755 227.554 139.943 228.481 139.366 229.409 138.789 230.441 138.5 231.579 138.5ZM232 140.454C231.205 140.454 230.48 140.652 229.826 141.048 229.171 141.443 228.649 142.021 228.259 142.779 227.869 143.538 227.675 144.428 227.675 145.451 227.675 146.49 227.869 147.392 228.259 148.159 228.649 148.926 229.171 149.511 229.826 149.915 230.48 150.319 231.205 150.521 232 150.521 232.795 150.521 233.524 150.319 234.186 149.915 234.849 149.511 235.375 148.926 235.764 148.159 236.154 147.392 236.349 146.498 236.349 145.475 236.349 144.453 236.154 143.563 235.764 142.804 235.375 142.045 234.849 141.464 234.186 141.06 233.524 140.656 232.795 140.454 232 140.454Z" stroke="#FFFFFF" stroke-linejoin="round" stroke-miterlimit="10" fill="#FFFFFF" fill-rule="evenodd"/></g></svg>