<svg width="183" height="183" xmlns="http://www.w3.org/2000/svg" xmlns:xlink="http://www.w3.org/1999/xlink" overflow="hidden"><defs><clipPath id="clip0"><rect x="844" y="150" width="183" height="183"/></clipPath><clipPath id="clip1"><rect x="845" y="151" width="181" height="181"/></clipPath><clipPath id="clip2"><rect x="845" y="151" width="181" height="181"/></clipPath><clipPath id="clip3"><rect x="845" y="151" width="181" height="181"/></clipPath></defs><g clip-path="url(#clip0)" transform="translate(-844 -150)"><g clip-path="url(#clip1)"><g clip-path="url(#clip2)"><g clip-path="url(#clip3)"><path d="M1003.38 237.729C1003.4 247.683 1001.08 257.503 996.588 266.388 985.735 288.102 963.547 301.824 939.271 301.833 929.317 301.859 919.497 299.534 910.612 295.046L867.625 309.375 881.954 266.388C877.466 257.503 875.141 247.683 875.167 237.729 875.176 213.453 888.898 191.265 910.612 180.413 919.497 175.925 929.317 173.599 939.271 173.625L943.042 173.625C975.59 175.421 1001.58 201.41 1003.38 233.958L1003.38 237.729Z" stroke="#075E54" stroke-width="13.6347" stroke-linecap="round" stroke-linejoin="round" fill="none"/></g></g></g><path d="M908.5 238.5C908.5 222.484 921.484 209.5 937.5 209.5 953.516 209.5 966.5 222.484 966.5 238.5 966.5 254.516 953.516 267.5 937.5 267.5 921.484 267.5 908.5 254.516 908.5 238.5Z" stroke="#075E54" stroke-width="10.6667" stroke-miterlimit="8" fill="none" fill-rule="evenodd"/></g></svg>