<svg width="431" height="132" xmlns="http://www.w3.org/2000/svg" xmlns:xlink="http://www.w3.org/1999/xlink" overflow="hidden"><defs><clipPath id="clip0"><rect x="659" y="162" width="431" height="132"/></clipPath><clipPath id="clip1"><rect x="959" y="163" width="131" height="130"/></clipPath><clipPath id="clip2"><rect x="959" y="163" width="131" height="130"/></clipPath><clipPath id="clip3"><rect x="959" y="163" width="131" height="130"/></clipPath></defs><g clip-path="url(#clip0)" transform="translate(-659 -162)"><g clip-path="url(#clip1)"><g clip-path="url(#clip2)"><g clip-path="url(#clip3)"><path d="M113.75 62.2917C113.768 69.4411 112.098 76.4936 108.875 82.875 101.08 98.4712 85.144 108.327 67.7083 108.333 60.5589 108.352 53.5065 106.682 47.125 103.458L16.25 113.75 26.5417 82.875C23.3184 76.4936 21.648 69.4411 21.6667 62.2917 21.6734 44.8559 31.5286 28.9198 47.125 21.125 53.5065 17.9017 60.5589 16.2314 67.7083 16.25L70.4167 16.25C93.7939 17.5397 112.46 36.206 113.75 59.5833L113.75 62.2917Z" stroke="#075E54" stroke-width="9.79284" stroke-linecap="round" stroke-linejoin="round" fill="none" transform="matrix(1.00769 0 0 1 959 163)"/></g></g></g><path d="M1004 226C1004 214.402 1013.4 205 1025 205 1036.6 205 1046 214.402 1046 226 1046 237.598 1036.6 247 1025 247 1013.4 247 1004 237.598 1004 226Z" fill="#075E54" fill-rule="evenodd"/><path d="M832 166 844.194 166 844.194 184.842C845.335 182.965 846.975 181.449 849.114 180.294 851.253 179.139 853.701 178.561 856.458 178.561 859.739 178.561 862.71 179.404 865.372 181.088 868.034 182.773 870.137 185.179 871.682 188.307 873.228 191.436 874 195.07 874 199.209 874 203.348 873.227 206.993 871.682 210.146 870.137 213.298 868.034 215.729 865.372 217.437 862.71 219.146 859.739 220 856.458 220 853.654 220 851.205 219.434 849.114 218.303 847.022 217.173 845.382 215.668 844.194 213.792L844.194 219.423 832 219.423 832 166ZM852.822 189.318C850.397 189.318 848.341 190.209 846.654 191.989 844.966 193.77 844.122 196.201 844.122 199.281 844.122 202.361 844.966 204.791 846.654 206.572 848.341 208.353 850.397 209.243 852.822 209.243 855.246 209.243 857.314 208.341 859.025 206.536 860.737 204.731 861.593 202.289 861.593 199.209 861.593 196.128 860.749 193.71 859.061 191.953 857.373 190.197 855.294 189.318 852.822 189.318Z" fill="#075E54" fill-rule="evenodd"/><path d="M726.143 178C730 178 733.429 178.829 736.428 180.488 739.429 182.146 741.774 184.512 743.464 187.585 745.155 190.659 746 194.244 746 198.342 746 199.512 745.929 200.732 745.786 202L718.143 202C718.333 204.537 719.131 206.476 720.536 207.817 721.94 209.159 723.667 209.829 725.714 209.829 728.762 209.829 730.881 208.512 732.071 205.878L745.071 205.878C744.405 208.561 743.202 210.976 741.464 213.122 739.726 215.268 737.548 216.951 734.929 218.171 732.31 219.39 729.381 220 726.143 220 722.238 220 718.762 219.146 715.714 217.439 712.667 215.732 710.286 213.293 708.571 210.122 706.857 206.951 706 203.244 706 199 706 194.756 706.845 191.049 708.536 187.878 710.226 184.707 712.595 182.268 715.643 180.561 718.69 178.854 722.19 178 726.143 178ZM726 188.024C723.952 188.024 722.226 188.634 720.821 189.854 719.417 191.073 718.548 192.805 718.214 195.049L733.5 195.049C733.5 192.902 732.786 191.195 731.357 189.927 729.929 188.659 728.143 188.024 726 188.024Z" fill="#075E54" fill-rule="evenodd"/><path d="M767.542 178C770.346 178 772.806 178.585 774.922 179.756 777.037 180.927 778.665 182.463 779.806 184.366L779.806 178.585 792 178.585 792 219.415 779.806 219.415 779.806 213.634C778.618 215.537 776.966 217.073 774.851 218.244 772.735 219.415 770.275 220 767.47 220 764.238 220 761.29 219.134 758.628 217.403 755.966 215.671 753.862 213.207 752.317 210.012 750.772 206.817 750 203.122 750 198.927 750 194.732 750.772 191.049 752.317 187.878 753.862 184.707 755.966 182.268 758.628 180.561 761.29 178.854 764.261 178 767.542 178ZM771.107 188.902C768.682 188.902 766.626 189.793 764.939 191.573 763.251 193.354 762.407 195.805 762.407 198.927 762.407 202.049 763.251 204.524 764.939 206.354 766.626 208.183 768.682 209.098 771.107 209.098 773.531 209.098 775.587 208.195 777.275 206.39 778.963 204.585 779.806 202.122 779.806 199 779.806 195.878 778.963 193.415 777.275 191.61 775.587 189.805 773.531 188.902 771.107 188.902Z" fill="#075E54" fill-rule="evenodd"/><path d="M683.505 179C688.213 179 691.973 180.501 694.784 183.504 697.595 186.506 699 190.631 699 195.879L699 219 686.748 219 686.748 197.511C686.748 194.863 686.051 192.806 684.658 191.34 683.264 189.875 681.39 189.142 679.036 189.142 676.682 189.142 674.808 189.875 673.414 191.34 672.021 192.806 671.324 194.863 671.324 197.511L671.324 219 659 219 659 179.426 671.324 179.426 671.324 184.674C672.574 182.924 674.255 181.541 676.369 180.525 678.484 179.508 680.862 179 683.505 179Z" fill="#075E54" fill-rule="evenodd"/><path d="M826 179 826 191.837 822.604 191.837C819.521 191.837 817.209 192.487 815.668 193.787 814.126 195.087 813.356 197.369 813.356 200.631L813.356 219 801 219 801 179.426 813.356 179.426 813.356 186.021C814.801 183.846 816.607 182.132 818.775 180.879 820.942 179.626 823.351 179 826 179Z" fill="#075E54" fill-rule="evenodd"/><path d="M877 179 890.578 179 899.749 204.019 908.848 179 922 179 897.119 238 884.038 238 893.137 217.64 877 179Z" fill="#075E54" fill-rule="evenodd"/><path d="M820 246 825.745 246 825.745 263.149C826.882 261.37 828.45 259.994 830.449 259.02 832.448 258.046 834.69 257.559 837.173 257.559 839.783 257.559 842.14 258.12 844.244 259.243 846.349 260.365 848.001 262.048 849.201 264.292 850.4 266.536 851 269.267 851 272.485L851 293 845.318 293 845.318 273.311C845.318 269.839 844.455 267.182 842.729 265.34 841.003 263.498 838.646 262.577 835.658 262.577 832.627 262.577 830.218 263.53 828.429 265.435 826.64 267.341 825.745 270.114 825.745 273.755L825.745 293 820 293 820 246Z" fill="#075E54" fill-rule="evenodd"/><path d="M904.656 249 910.623 249 910.623 257.851 920 257.851 920 262.662 910.623 262.662 910.623 283.379C910.623 285.089 910.994 286.297 911.738 287.003 912.481 287.708 913.771 288.061 915.606 288.061L920 288.061 920 293 914.623 293C911.3 293 908.809 292.252 907.148 290.755 905.486 289.258 904.656 286.8 904.656 283.379L904.656 262.662 900 262.662 900 257.851 904.656 257.851 904.656 249Z" fill="#075E54" fill-rule="evenodd"/><path d="M795.944 257C800.217 257 803.739 258.068 806.511 260.203 809.282 262.339 811.112 265.302 812 269.094L805.781 269.094C805.188 266.915 804.036 265.193 802.322 263.929 800.609 262.665 798.483 262.034 795.944 262.034 792.644 262.034 789.979 263.199 787.948 265.531 785.917 267.862 784.902 271.164 784.902 275.435 784.902 279.749 785.917 283.083 787.948 285.436 789.979 287.79 792.644 288.966 795.944 288.966 798.483 288.966 800.598 288.356 802.29 287.136 803.983 285.916 805.146 284.172 805.781 281.906L812 281.906C811.069 285.567 809.208 288.498 806.415 290.699 803.623 292.9 800.133 294 795.944 294 792.644 294 789.714 293.237 787.155 291.712 784.595 290.187 782.596 288.029 781.158 285.24 779.719 282.451 779 279.183 779 275.435 779 271.73 779.719 268.494 781.158 265.727 782.596 262.96 784.595 260.813 787.155 259.288 789.714 257.763 792.644 257 795.944 257Z" fill="#075E54" fill-rule="evenodd"/><path d="M875.367 257C878.389 257 881.011 257.675 883.236 259.027 885.46 260.378 887.118 262.077 888.209 264.125L888.209 257.588 894 257.588 894 293.412 888.209 293.412 888.209 286.744C887.076 288.836 885.386 290.568 883.141 291.941 880.896 293.314 878.284 294 875.304 294 872.24 294 869.471 293.215 866.995 291.647 864.519 290.078 862.567 287.877 861.14 285.044 859.713 282.211 859 278.986 859 275.369 859 271.708 859.713 268.494 861.14 265.727 862.567 262.96 864.529 260.813 867.026 259.288 869.523 257.763 872.303 257 875.367 257ZM876.5 262.164C874.36 262.164 872.408 262.687 870.646 263.733 868.883 264.779 867.477 266.304 866.428 268.309 865.379 270.314 864.854 272.667 864.854 275.369 864.854 278.115 865.379 280.501 866.428 282.527 867.477 284.554 868.883 286.101 870.646 287.169 872.408 288.236 874.36 288.77 876.5 288.77 878.64 288.77 880.602 288.236 882.386 287.169 884.169 286.101 885.586 284.554 886.635 282.527 887.684 280.501 888.209 278.137 888.209 275.435 888.209 272.733 887.684 270.379 886.635 268.375 885.586 266.37 884.169 264.834 882.386 263.766 880.602 262.698 878.64 262.164 876.5 262.164Z" fill="#075E54" fill-rule="evenodd"/></g></svg>