<svg width="140" height="165" xmlns="http://www.w3.org/2000/svg" xmlns:xlink="http://www.w3.org/1999/xlink" overflow="hidden"><defs><clipPath id="clip0"><rect x="448" y="172" width="140" height="165"/></clipPath></defs><g clip-path="url(#clip0)" transform="translate(-448 -172)"><path d="M496.861 240 539.139 240C565.572 240 587 261.49 587 288 587 314.51 565.572 336 539.139 336L496.861 336C470.428 336 449 314.51 449 288 449 261.49 470.428 240 496.861 240Z" fill="#0D0D0D" fill-rule="evenodd"/><path d="M494 197C494 183.745 504.745 173 518 173L518 173C531.255 173 542 183.745 542 197L542 208C542 221.255 531.255 232 518 232L518 232C504.745 232 494 221.255 494 208Z" fill="#0D0D0D" fill-rule="evenodd"/></g></svg>