<svg width="24" height="24" viewBox="0 0 24 24" xmlns="http://www.w3.org/2000/svg" xmlns:xlink="http://www.w3.org/1999/xlink" stroke="currentColor" stroke-width="2" stroke-linecap="round" stroke-linejoin="round" fill="none" overflow="hidden"><circle cx="12" cy="12" r="3"/><path d="M19.4 15C19.1277 15.6171 19.2583 16.3378 19.73 16.82L19.79 16.88C20.5715 17.6606 20.5722 18.9269 19.7916 19.7084 19.791 19.709 19.7905 19.7095 19.79 19.71 19.0094 20.4915 17.7431 20.4922 16.9616 19.7116 16.9611 19.711 16.9605 19.7105 16.96 19.71L16.9 19.65C16.4178 19.1783 15.6971 19.0477 15.08 19.32 14.4755 19.5791 14.0826 20.1724 14.08 20.83L14.08 21C14.08 22.1046 13.1846 23 12.08 23 10.9754 23 10.08 22.1046 10.08 21L10.08 20.91C10.0642 20.2327 9.63587 19.6339 9 19.4 8.38291 19.1277 7.66219 19.2583 7.18 19.73L7.12 19.79C6.33939 20.5715 5.07306 20.5722 4.29157 19.7916 4.29105 19.791 4.29052 19.7905 4.29 19.79 3.50852 19.0094 3.50781 17.7431 4.28843 16.9616 4.28895 16.9611 4.28948 16.9605 4.29 16.96L4.35 16.9C4.82167 16.4178 4.95235 15.6971 4.68 15.08 4.42093 14.4755 3.82764 14.0826 3.17 14.08L3 14.08C1.89543 14.08 1 13.1846 1 12.08 1 10.9754 1.89543 10.08 3 10.08L3.09 10.08C3.76733 10.0642 4.36613 9.63587 4.6 9 4.87235 8.38291 4.74167 7.66219 4.27 7.18L4.21 7.12C3.42852 6.33939 3.42781 5.07306 4.20843 4.29157 4.20895 4.29105 4.20948 4.29052 4.21 4.29 4.99061 3.50852 6.25694 3.50781 7.03843 4.28843 7.03895 4.28895 7.03948 4.28948 7.04 4.29L7.1 4.35C7.58219 4.82167 8.30291 4.95235 8.92 4.68L9 4.68C9.60447 4.42093 9.99738 3.82764 10 3.17L10 3C10 1.89543 10.8954 1 12 1 13.1046 1 14 1.89543 14 3L14 3.09C14.0026 3.74764 14.3955 4.34093 15 4.6 15.6171 4.87235 16.3378 4.74167 16.82 4.27L16.88 4.21C17.6606 3.42852 18.9269 3.42781 19.7084 4.20843 19.709 4.20895 19.7095 4.20948 19.71 4.21 20.4915 4.99061 20.4922 6.25694 19.7116 7.03843 19.711 7.03895 19.7105 7.03948 19.71 7.04L19.65 7.1C19.1783 7.58219 19.0477 8.30291 19.32 8.92L19.32 9C19.5791 9.60447 20.1724 9.99738 20.83 10L21 10C22.1046 10 23 10.8954 23 12 23 13.1046 22.1046 14 21 14L20.91 14C20.2524 14.0026 19.6591 14.3955 19.4 15Z"/></svg>