<svg width="514" height="514" xmlns="http://www.w3.org/2000/svg" xmlns:xlink="http://www.w3.org/1999/xlink" overflow="hidden"><defs><clipPath id="clip0"><rect x="147" y="100" width="514" height="514"/></clipPath></defs><g clip-path="url(#clip0)" transform="translate(-147 -100)"><path d="M148 356.5C148 214.839 262.839 100 404.5 100 546.161 100 661 214.839 661 356.5 661 498.161 546.161 613 404.5 613 262.839 613 148 498.161 148 356.5Z" fill-rule="evenodd"/><path d="M254.909 322.884 214.842 344.394 214.842 422.401C237.079 408.772 258.508 401.958 279.13 401.958 284.69 401.958 290.876 402.586 297.691 403.841 304.505 405.096 311.857 407.069 319.748 409.759ZM301.188 222.542C280.389 237.247 258.962 244.599 236.908 244.599 228.121 244.599 217.721 242.883 205.709 239.451L264.353 317.483 301.188 298.389ZM166.693 137.811C170.459 137.811 173.866 139.47 176.915 142.787 179.963 146.105 181.488 150.543 181.488 156.102 181.488 162.02 177.991 168.117 170.997 174.393 167.411 177.621 165.617 180.849 165.617 184.077 165.617 188.919 168.408 193.537 173.99 197.93 179.571 202.323 187.404 204.52 197.488 204.52 206.634 204.52 216.228 203.175 226.27 200.485 240.26 196.54 258.732 189.726 281.686 180.042 291.386 192.416 301.492 202.144 312.002 209.228 322.512 216.311 337.019 222.722 355.523 228.46L355.523 328.793 296.695 360.471 331.348 406.506 355.813 436.91C361.008 443.01 364.68 447.137 366.829 449.292 370.59 452.878 372.47 455.749 372.47 457.903 372.47 459.876 371.483 461.849 369.509 463.823 367.535 465.797 365.56 466.784 363.585 466.784 361.43 466.784 357.929 464.901 353.081 461.135 339.977 450.914 324.987 445.803 308.114 445.803 297.164 445.803 286.797 447.327 277.014 450.376 267.231 453.424 255.698 458.894 242.414 466.784 226.966 452.618 213.136 442.575 200.922 436.657 188.708 430.74 175.057 427.064 159.969 425.629L159.969 312.385 222.424 279.799 170.552 213.935C161.37 202.279 155.158 192.774 151.918 185.422 148.677 178.07 147.057 170.538 147.057 162.827 147.057 155.295 149.075 149.243 153.109 144.67 157.144 140.097 161.672 137.811 166.693 137.811ZM256.5 0C114.839 0 0 114.839 0 256.5 0 398.161 114.839 513 256.5 513 398.161 513 513 398.161 513 256.5 513 114.839 398.161 0 256.5 0Z" fill="#FFFFFF" fill-rule="evenodd" transform="matrix(-1 0 0 1 661 100)"/></g></svg>