<svg width="24" height="24" viewBox="0 0 24 24" xmlns="http://www.w3.org/2000/svg" xmlns:xlink="http://www.w3.org/1999/xlink" stroke="currentColor" stroke-width="2" stroke-linecap="round" stroke-linejoin="round" fill="none" overflow="hidden"><path d="M22 16.92 22 19.92C22.0045 21.0246 21.1127 21.9236 20.0081 21.9281 19.9453 21.9284 19.8825 21.9257 19.82 21.92 16.7428 21.5856 13.787 20.5341 11.19 18.85 8.77383 17.3147 6.72534 15.2662 5.19 12.85 3.49998 10.2412 2.44824 7.271 2.12 4.18 2.02059 3.07991 2.8318 2.10753 3.93188 2.00812 3.9911 2.00276 4.05054 2.00006 4.11 2L7.11 2C8.11386 1.99012 8.9695 2.72597 9.11 3.72 9.23662 4.68007 9.47145 5.62273 9.81 6.53 10.0847 7.26088 9.90902 8.08481 9.36 8.64L8.09 9.91C9.51356 12.4135 11.5865 14.4864 14.09 15.91L15.36 14.64C15.9152 14.091 16.7391 13.9153 17.47 14.19 18.3773 14.5286 19.3199 14.7634 20.28 14.89 21.2856 15.0319 22.0252 15.9048 22 16.92Z"/></svg>