<svg width="130" height="130" xmlns="http://www.w3.org/2000/svg" xmlns:xlink="http://www.w3.org/1999/xlink" overflow="hidden"><defs><clipPath id="clip0"><rect x="89" y="86" width="130" height="130"/></clipPath><clipPath id="clip1"><rect x="90" y="87" width="128" height="128"/></clipPath><clipPath id="clip2"><rect x="90" y="87" width="128" height="128"/></clipPath><clipPath id="clip3"><rect x="90" y="87" width="128" height="128"/></clipPath></defs><g clip-path="url(#clip0)" transform="translate(-89 -86)"><g clip-path="url(#clip1)"><g clip-path="url(#clip2)"><g clip-path="url(#clip3)"><path d="M202 148.333C202.018 155.373 200.374 162.317 197.2 168.6 189.525 183.956 173.834 193.66 156.667 193.667 149.627 193.685 142.683 192.041 136.4 188.867L106 199 116.133 168.6C112.96 162.317 111.315 155.373 111.333 148.333 111.34 131.166 121.044 115.475 136.4 107.8 142.683 104.626 149.627 102.982 156.667 103L159.333 103C182.351 104.27 200.73 122.649 202 145.667L202 148.333Z" stroke="#075E54" stroke-width="9.64219" stroke-linecap="round" stroke-linejoin="round" fill="#FDFDFD"/></g></g></g><path d="M135.5 149C135.5 137.678 144.678 128.5 156 128.5 167.322 128.5 176.5 137.678 176.5 149 176.5 160.322 167.322 169.5 156 169.5 144.678 169.5 135.5 160.322 135.5 149Z" stroke="#075E54" stroke-width="10.6667" stroke-miterlimit="8" fill="#075E54" fill-rule="evenodd"/></g></svg>